<svg xmlns="http://www.w3.org/2000/svg" xmlns:xlink="http://www.w3.org/1999/xlink" width="32" height="872" viewBox="0 0 32 872"><svg width="32" height="32" viewBox="0 0 32 32"><path fill="#f15044" d="M21.563 10.676c-1.814-.88-3.958-.178-4.962 1.561l-.001.001-.009.016-.003.005c-.069.112-.19.187-.328.187-.139 0-.26-.075-.328-.187l-.003-.005-.009-.016-.001-.001c-1.003-1.74-3.147-2.442-4.962-1.561-1.928.935-2.754 3.302-1.846 5.288.717 1.567 4.752 5.441 6.423 7.006h.001c.191.179.445.29.725.29.278 0 .531-.109.723-.287 1.669-1.562 5.709-5.44 6.427-7.008.908-1.986.081-4.354-1.847-5.289z"/><path fill="#b2b2b2" d="M16 30.25c-7.857 0-14.25-6.393-14.25-14.25s6.393-14.25 14.25-14.25 14.25 6.393 14.25 14.25-6.393 14.25-14.25 14.25zm0-28c-7.582 0-13.75 6.168-13.75 13.75s6.168 13.75 13.75 13.75 13.75-6.168 13.75-13.75-6.168-13.75-13.75-13.75z"/></svg><svg width="32" height="32" viewBox="0 0 32 32" y="42"><path fill="#b4b4b4" d="M12.777 10.613c1.784 0 3.23 1.446 3.23 3.23s-1.446 3.23-3.23 3.23-3.23-1.446-3.23-3.23 1.446-3.23 3.23-3.23zM15.738 11.2c2.812 0 5.1 2.054 5.1 4.578s-2.288 4.578-5.1 4.578-5.1-2.054-5.1-4.578c0-2.524 2.288-4.578 5.1-4.578zm0-2c-3.921 0-7.1 2.945-7.1 6.578s3.179 6.578 7.1 6.578 7.1-2.945 7.1-6.578-3.179-6.578-7.1-6.578zM15.482 25.615c-10.844 0-14.385-9.174-14.419-9.267-.12-.322-.066-.683.143-.956.281-.368 6.965-9.008 14.276-9.008 7.268 0 14.944 8.587 15.267 8.953.269.304.327.741.148 1.104-.184.375-4.643 9.174-15.415 9.174zm-12.324-9.458c.843 1.768 4.19 7.458 12.324 7.458 8.083 0 12.153-5.594 13.289-7.467-1.735-1.809-7.862-7.764-13.289-7.764-5.461.001-10.892 6.054-12.324 7.773z"/></svg><svg width="32" height="32" viewBox="0 0 32 32" y="84"><path fill="#febb39" d="M16 2c7.732 0 14 6.268 14 14s-6.268 14-14 14-14-6.268-14-14 6.268-14 14-14z"/><path fill="#fff" d="M19.417 12.302h-1.232c0-1.351-.984-2.449-2.194-2.449s-2.194 1.099-2.194 2.449h-1.232c0-2.03 1.537-3.681 3.426-3.681s3.426 1.651 3.426 3.681zM21.289 23.905h-10.578c-1.1 0-1.994-.895-1.994-1.994v-7.467c0-1.099.895-1.994 1.994-1.994h1.205v1.5h-1.205c-.272 0-.494.222-.494.494v7.467c0 .272.222.494.494.494h10.578c.272 0 .494-.222.494-.494v-7.467c0-.272-.222-.494-.494-.494h-1.131v-1.5h1.131c1.1 0 1.994.895 1.994 1.994v7.467c0 1.1-.894 1.994-1.994 1.994zM13.2 14.445c.687 0 1.244.557 1.244 1.244s-.557 1.245-1.244 1.245c-.687 0-1.244-.557-1.244-1.245 0-.687.557-1.244 1.244-1.244zM18.8 14.445c.687 0 1.244.557 1.244 1.244s-.557 1.245-1.244 1.245-1.244-.557-1.244-1.245c0-.687.557-1.244 1.244-1.244zM12.578 11.956h1.244v3.111h-1.244v-3.111zM18.178 11.956h1.244v3.111h-1.244v-3.111zM14.444 12.578h3.111v1.245h-3.111v-1.245z"/></svg><svg width="32" height="32" viewBox="0 0 32 32" y="126"><path fill="#b2b2b2" d="M13.264 28.328h-12.681v-18.024h12.681v18.024zm-10.681-2h8.681v-14.024h-8.681v14.024zM13.29 28.327c-1.552 0-2.555-.939-2.555-2.395l.001-14.377c0-.515.391-.945.903-.995.124-.014 3.196-.399 4.309-4.087.785-2.598 2.381-4.149 4.271-4.149.952 0 1.87.428 2.519 1.174.771.888 1.095 2.096.911 3.403-.237 1.68-.397 2.878-.497 3.654h5.314c.155 0 1.537.028 2.37 1.005.341.4.711 1.108.535 2.207-.328 2.05-2.471 13.247-2.562 13.723-.091.472-.503.812-.982.812h-14.105c-.093.011-.245.025-.432.025zm-.554-15.967l-.001 13.574c0 .236 0 .394.555.394l.204-.013.159-.013h13.347c.511-2.678 2.123-11.147 2.396-12.851.044-.275.017-.474-.08-.59-.186-.221-.666-.302-.857-.305h-6.44c-.285 0-.557-.122-.746-.334-.19-.213-.28-.497-.247-.78 0 0 .168-1.454.643-4.818.102-.725-.054-1.369-.439-1.812-.272-.313-.632-.486-1.01-.486-.741 0-1.749.716-2.356 2.727-1.109 3.665-3.733 4.901-5.128 5.307z"/></svg><svg width="32" height="32" viewBox="0 0 32 32" y="168"><path fill="#00ae66" d="M30 17.5h-28c-.829 0-1.5-.672-1.5-1.5 0-.829.671-1.5 1.5-1.5h28c.828 0 1.5.671 1.5 1.5 0 .828-.672 1.5-1.5 1.5zM2 17.5c-.384 0-.768-.146-1.061-.439-.586-.585-.586-1.536 0-2.121l13-13c.586-.586 1.535-.586 2.121 0s.586 1.536 0 2.121l-13 13c-.292.293-.676.439-1.06.439zM15 30.5c-.384 0-.768-.146-1.061-.439l-13-13c-.586-.585-.586-1.536 0-2.121s1.535-.586 2.121 0l13 13c.586.586.586 1.535 0 2.121-.292.293-.676.439-1.06.439z"/></svg><svg width="32" height="32" viewBox="0 0 32 32" y="210"><path fill="#808080" d="M23.5 14.893c-.276 0-.5-.224-.5-.5v-4.857h-4.857c-.276 0-.5-.224-.5-.5s.224-.5.5-.5h5.857v5.857c0 .276-.224.5-.5.5zM14.576 17.802c-.134 0-.267-.054-.366-.159-.188-.201-.177-.518.024-.706l8.037-7.5c.2-.188.518-.178.706.024s.178.519-.024.707l-8.036 7.5c-.096.089-.219.134-.341.134zM19.96 17.302c0 2.974-2.415 5.393-5.384 5.393s-5.384-2.419-5.384-5.393 2.415-5.394 5.384-5.394v-1c-3.52 0-6.384 2.868-6.384 6.394 0 3.524 2.864 6.393 6.384 6.393 3.521 0 6.384-2.868 6.384-6.393h-1z"/><path fill="#b3b3b3" d="M16 30.25c-7.857 0-14.25-6.393-14.25-14.25s6.393-14.25 14.25-14.25 14.25 6.393 14.25 14.25-6.393 14.25-14.25 14.25zm0-28c-7.582 0-13.75 6.168-13.75 13.75s6.168 13.75 13.75 13.75 13.75-6.168 13.75-13.75-6.168-13.75-13.75-13.75z"/></svg><svg width="32" height="32" viewBox="0 0 32 32" y="252"><path fill="#f7b086" d="M16 6.045c-.583-2.531-3.547-4.034-5.833-4.034-4.51 0-8.167 3.904-8.167 9.11 0 9.761 8.318 12.363 12.833 18.219l.14.175c.571.632 1.493.632 2.064 0l.129-.175c4.522-5.869 12.834-8.42 12.834-18.219 0-5.205-3.657-9.11-8.167-9.11-2.286 0-5.25 1.503-5.833 4.034zm6.213 1.822c-.549-.111-.963-.644-.963-1.282 0-.715.525-1.321 1.167-1.321.927 0 2.053.735 2.998 1.777.963 1.067 1.669 2.492 1.669 3.429 0 .715-.525 1.301-1.167 1.301-.572 0-1.05-.462-1.15-1.074-.292-1.307-1.294-2.504-2.554-2.83z"/></svg><svg width="32" height="32" viewBox="0 0 32 32" y="294"><path fill="#fa4d45" d="M3.565 3.012c-.949.79-1.565 1.965-1.565 3.296v19.385c0 2.379 1.928 4.307 4.308 4.307h19.385c2.378 0 4.307-1.928 4.307-4.307v-19.385c0-1.094-.421-2.082-1.094-2.842-3.397 2.42-7.693 3.877-12.368 3.877-4.959-.001-9.489-1.641-12.973-4.331zM27.071 2.246c-.435-.148-.894-.246-1.379-.246h-19.384c-.201 0-.392.033-.586.059 3.004 2.026 6.747 3.245 10.816 3.245 3.943 0 7.578-1.145 10.533-3.058z"/><path fill="#f9c2bf" d="M27.071 2.246c-2.955 1.913-6.59 3.058-10.532 3.058-4.069 0-7.812-1.219-10.816-3.245-.817.112-1.554.449-2.158.953 3.485 2.69 8.014 4.331 12.974 4.331 4.675 0 8.97-1.457 12.368-3.877-.492-.556-1.119-.976-1.836-1.22z"/><path fill="#faf662" d="M8.964 21.918c.465.196.891.412 1.279.648.077-.157.194-.374.349-.648.503-.863.852-1.551 1.047-2.061l-1.279-.53c-.505 1.139-.97 2.002-1.396 2.591zm9.478-1.119l-.058.236c-.078.432-.504.648-1.279.648h-2.152c-.776.039-1.144-.215-1.105-.766v-1.413h-1.512v1.767c-.039 1.099.582 1.649 1.861 1.649h3.315c1.24.039 1.957-.374 2.152-1.237.116-.157.213-.51.291-1.06l.058-.177c-.349-.118-.814-.294-1.396-.53-.116.47-.175.765-.175.883zm4.013-.059c-.272-.392-.485-.687-.64-.883l1.163-.825c-.272-.274-.679-.648-1.221-1.119-.504-.51-.911-.883-1.221-1.119h1.279v-4.653h-5.001v-.824h5.99v-1.178h-5.99v-1.06h-1.512v1.06h-5.99v1.178h5.99v.824h-5.059v4.653h5.059v.942c-1.977.04-4.012.04-6.106 0l.116 1.296c2.171-.078 4.341-.118 6.513-.118l-.814.589c.271.315.62.727 1.047 1.237.116.197.213.334.291.412l1.105-.825c-.155-.156-.369-.392-.64-.707l-.698-.707 4.652-.118c.154.197.349.412.581.648l-1.163.471c.233.315.542.805.93 1.472.271.392.465.687.581.883l1.338-.648c-.115-.154-.309-.449-.58-.881zm-7.153-4.947h-3.547v-.883h3.547v.883zm0-1.767h-3.547v-.883h3.547v.883zm1.512 3.71v-.942h2.501l-.349.177.756.766h-2.908zm3.489-1.943h-3.489v-.883h3.489v.883zm0-1.767h-3.489v-.883h3.489v.883z"/></svg><svg width="32" height="32" viewBox="0 0 32 32" y="336"><path fill="#ffeadf" d="M16 29.25c-5.876 0-10.657-4.457-10.657-9.935 0-2.759 1.442-4.488 2.97-6.319 1.96-2.351 4.163-4.991 2.893-9.941 3.031.899 5.166 2.515 6.211 4.719 1.257 2.648.723 5.506-.117 7.148-.153.301-.087.667.162.895.142.13.323.197.506.197.138 0 .276-.038.399-.115 2.061-1.295 3.059-3.609 2.882-6.605 4.996 3.262 5.409 8.424 5.409 10.023-.001 5.476-4.782 9.933-10.658 9.933z"/><path fill="#ff7326" d="M12.201 4.184c2.193.866 3.715 2.176 4.538 3.91 1.067 2.248.715 4.878-.108 6.486-.307.601-.175 1.333.323 1.789.284.26.647.393 1.013.393.275 0 .552-.076.798-.23 1.936-1.216 3.036-3.209 3.225-5.755 3.596 3.039 3.918 7.173 3.918 8.538 0 5.064-4.444 9.184-9.907 9.184s-9.907-4.12-9.907-9.184c0-2.488 1.296-4.041 2.796-5.839 1.808-2.169 3.992-4.788 3.311-9.292zm-2.101-2.184c3.293 9.369-5.507 10.152-5.507 17.316 0 5.9 5.107 10.684 11.407 10.684s11.407-4.784 11.407-10.684c0-2.88-1.166-8.402-7.08-11.421.574 3.263-.14 5.973-2.36 7.368 1.821-3.564 1.852-11.167-7.867-13.263z"/></svg><svg width="32" height="32" viewBox="0 0 32 32" y="378"><path fill="#56d279" d="M16 2c7.732 0 14 6.268 14 14s-6.268 14-14 14-14-6.268-14-14 6.268-14 14-14z"/><path fill="#fff" d="M11.644 18.178c-.516 0-.933.418-.933.933s.418.933.933.933c.515 0 .933-.418.933-.933s-.417-.933-.933-.933zm9.023.933c0-.516-.418-.933-.933-.933s-.933.418-.933.933.418.933.933.933c.515 0 .933-.417.933-.933zm-6.98-9.582l-.848.122-2.949 3.932.398.478 3.399-4.532zm7.602 6.782h-3.51l4.954-6.605-.398-.478-5.312 7.083h-6.933c-.344 0-.622.279-.622.622 0 .344.279.622.622.622h11.2c.344 0 .622-.279.622-.622-.001-.343-.279-.622-.623-.622zm-9.645 4.978c-.516 0-.933.418-.933.933v.622c0 .515.418.933.933.933s.933-.418.933-.933v-.622c.001-.515-.417-.933-.933-.933zm8.712 0c-.515 0-.933.418-.933.933v.622c0 .515.418.933.933.933s.933-.418.933-.933v-.622c0-.515-.418-.933-.933-.933zM21.656 10.344v10.067h-11.312v-10.067h11.312zm.255-1.5h-11.822c-.687 0-1.244.557-1.244 1.245v10.578c0 .687.557 1.244 1.244 1.244h11.822c.687 0 1.244-.557 1.244-1.244v-10.578c.001-.687-.557-1.245-1.244-1.245z"/></svg><svg width="32" height="32" viewBox="0 0 32 32" y="420"><path fill="#48dab2" d="M16 2c7.732 0 14 6.268 14 14s-6.268 14-14 14-14-6.268-14-14 6.268-14 14-14z"/><path fill="#fff" d="M9.467 17.746v-2.68c0-.344-.279-.622-.622-.622s-.622.279-.622.622v2.68c-.366.217-.623.598-.623 1.054 0 .687.557 1.244 1.244 1.244s1.244-.557 1.244-1.244c.001-.455-.256-.837-.621-1.054zM16.311 22.039c-2.897 0-4.232-1.43-4.288-1.49l-.195-.215v-4.645h1.5v4.016c.38.284 1.329.834 2.983.834 1.65 0 2.598-.547 2.983-.835v-4.015h1.5v4.645l-.195.215c-.056.06-1.391 1.49-4.288 1.49zM16 18.39l-10.248-4.97 10.248-4.14 10.248 4.141-10.248 4.969zm-6.552-4.845l6.552 3.177 6.553-3.176-6.553-2.648-6.552 2.647z"/></svg><svg width="32" height="32" viewBox="0 0 32 32" y="462"><path fill="#cbb4b2" d="M16 2c7.732 0 14 6.268 14 14s-6.268 14-14 14-14-6.268-14-14 6.268-14 14-14z"/><path fill="#fff" d="M26.738 14.293c-1.764-2.367-6.058-6.177-10.736-6.177-4.683 0-8.982 3.809-10.745 6.177-.398.541-.616 1.127-.63 1.707.014.581.232 1.166.63 1.707 1.764 2.367 6.058 6.176 10.741 6.176s8.977-3.809 10.741-6.176c.403-.541.621-1.126.635-1.707-.015-.58-.233-1.166-.636-1.707z"/><path fill="#cbb4b2" d="M21.697 16c0 3.322-2.551 6.015-5.697 6.015s-5.697-2.693-5.697-6.015c0-3.322 2.551-6.015 5.697-6.015s5.697 2.693 5.697 6.015z"/><path fill="#fff" d="M17.994 16.601c-1.1 0-1.994-.944-1.994-2.105 0-.836.467-1.564 1.134-1.901-.353-.133-.735-.205-1.134-.205-1.886 0-3.418 1.618-3.418 3.609s1.532 3.609 3.418 3.609 3.418-1.618 3.418-3.609v-.03c-.365.392-.866.632-1.424.632z"/></svg><svg width="32" height="32" viewBox="0 0 32 32" y="504"><path fill="#fff5e3" d="M2.886 11.602l3.84-7.749h18.547l3.84 7.749-13.113 16.108z"/><path fill="#ffbb40" d="M24.808 4.603l3.419 6.899-12.227 15.019-12.227-15.019 3.419-6.899h17.616zm.931-1.5h-19.478l-4.261 8.598 14 17.196 14-17.196-4.261-8.598zM29.051 12.287v-1.424h-6.876l4.025-6.388-1.24-.723-4.287 6.804-4.688-6.336-.375.265-.326-.235-4.176 5.777-3.89-6.349-1.225.734 3.954 6.451h-6.523v1.424h6.736l5.016 14.171-.36.998 1.293.488.193-.534.572-.22-.244-.689 5.129-14.214h7.292zm-9.925-1.423h-6.866l3.393-4.694 3.473 4.694zm-7.528 1.423h8.692l-4.388 12.159-4.304-12.159z"/></svg><svg width="32" height="32" viewBox="0 0 32 32" y="546"><path fill="#999" d="M13.846 9.538c.595 0 1.077.362 1.077.808v8.077c0 .446-.482.807-1.077.807s-1.077-.362-1.077-.807v-8.077c0-.446.482-.808 1.077-.808zM22.462 18.154c0 .594-.362 1.076-.808 1.076h-8.077c-.446 0-.808-.482-.808-1.076s.362-1.077.808-1.077h8.077c.446 0 .808.482.808 1.077zM16 4c6.617 0 12 5.383 12 12s-5.383 12-12 12-12-5.383-12-12 5.383-12 12-12zm0-2c-7.732 0-14 6.268-14 14s6.268 14 14 14 14-6.268 14-14-6.268-14-14-14z"/></svg><svg width="32" height="32" viewBox="0 0 32 32" y="588"><path fill="#999" d="M16 10.461c2.461.009 4.462 1.822 4.462 4.043 0 .668-.985 2.312-2.151 3.59-.574.629-.73.838-.984 1.214-.17.251-.435.642-1.326 1.749-.896-1.112-1.161-1.504-1.34-1.768-.242-.358-.398-.566-.971-1.194-1.166-1.278-2.151-2.922-2.151-3.59-.001-2.222 2-4.035 4.461-4.044zm0-2c-3.564.009-6.462 2.716-6.462 6.043 0 1.952 2.399 4.638 2.673 4.938.537.589.623.717.797.974.234.346.585.869 2.068 2.673.241.283.572.44.923.448.352-.008.682-.164.923-.448 1.483-1.805 1.834-2.328 2.068-2.673.174-.257.26-.386.797-.974.274-.3 2.673-2.987 2.673-4.938.002-3.326-2.896-6.033-6.46-6.043zM16 4c6.617 0 12 5.383 12 12s-5.383 12-12 12-12-5.383-12-12 5.383-12 12-12zm0-2c-7.732 0-14 6.268-14 14s6.268 14 14 14 14-6.268 14-14-6.268-14-14-14z"/></svg><svg width="32" height="32" viewBox="0 0 32 32" y="630"><path fill="#84cb7f" d="M23.542 21.59l-4.442-4.428h1.84c.645 0 1.171-.525 1.171-1.167 0-.321-.13-.612-.343-.823l-4.442-4.427h1.84c.645 0 1.171-.537 1.171-1.196 0-.327-.13-.624-.343-.84l-6.216-6.364c-.461-.467-1.206-.467-1.668 0l-6.206 6.353c-.219.216-.355.519-.355.852 0 .659.526 1.196 1.171 1.196h1.834l-4.424 4.416c-.219.211-.355.508-.355.834 0 .641.527 1.167 1.171 1.167h1.834l-4.424 4.415c-.22.211-.356.508-.356.835 0 .641.526 1.167 1.171 1.167h7.701v2.333c0 .642-.532 1.167-1.183 1.167h-6.21c-.817-.001-1.479.653-1.479 1.458s.662 1.458 1.479 1.458h14.788c.816 0 1.479-.653 1.479-1.458s-.662-1.458-1.479-1.458h-1.479c-.651 0-1.183-.525-1.183-1.167v-2.333h7.11c.645 0 1.171-.525 1.171-1.167-.001-.321-.131-.613-.344-.823zM25.898 30.755c-1.436 0-2.669-.923-3.071-2.199h-1.075c-.403 1.276-1.636 2.199-3.072 2.199s-2.668-.923-3.071-2.199h-.538c-.866 0-1.57-.688-1.57-1.535 0-.516.265-.982.678-1.263.155-1.721 1.142-3.264 2.675-4.174.439-2.638 2.777-4.579 5.6-4.579h.984c2.598 0 4.849 1.715 5.489 4.083h.352c.812 0 1.472.646 1.472 1.441v2.136c0 1.242-.62 2.406-1.645 3.135-.082 1.642-1.489 2.955-3.208 2.955zm-.055-9.038c-.216-.626-.698-1.139-1.327-1.417v1.417h1.327zm-4.468 0v-1.417c-.629.278-1.111.791-1.327 1.417h1.327z"/><path fill="#fff" d="M23.438 17.755c2.497 0 4.557 1.778 4.879 4.083h.961c.4 0 .722.308.722.691v2.136c0 1.169-.666 2.186-1.657 2.729l.016.255c0 1.3-1.103 2.356-2.461 2.356-1.303 0-2.372-.97-2.454-2.199h-2.31c-.082 1.228-1.152 2.199-2.454 2.199-1.303 0-2.372-.97-2.454-2.199h-1.155c-.453 0-.82-.352-.82-.785 0-.38.282-.697.659-.77l-.003-.016c0-1.815 1.073-3.389 2.641-4.177.217-2.412 2.33-4.303 4.905-4.303h.985zm.328 4.711h2.953c0-1.63-1.296-2.968-2.953-3.125v3.125zm-4.594 0h2.953v-3.125c-1.657.157-2.953 1.495-2.953 3.125zm6.727 5.968c.453 0 .82-.352.82-.785s-.368-.785-.82-.785c-.453 0-.82.352-.82.785-.001.433.367.785.82.785zm-7.219 0c.453 0 .82-.352.82-.785s-.367-.785-.82-.785c-.453 0-.82.352-.82.785s.367.785.82.785zm4.758-12.179h-.984c-3.074 0-5.64 2.042-6.274 4.867-1.483.989-2.463 2.526-2.711 4.247-.446.42-.718 1.01-.718 1.651 0 1.26 1.041 2.285 2.32 2.285h.033c.64 1.303 2.01 2.199 3.576 2.199s2.937-.895 3.576-2.199h.066c.64 1.303 2.01 2.199 3.576 2.199 1.993 0 3.647-1.44 3.921-3.308 1.053-.874 1.68-2.162 1.68-3.531v-2.136c0-1.143-.892-2.084-2.025-2.183-.905-2.403-3.301-4.091-6.036-4.091z"/></svg><svg width="32" height="32" viewBox="0 0 32 32" y="672"><path fill="#77c6fc" d="M16 2c7.732 0 14 6.268 14 14s-6.268 14-14 14-14-6.268-14-14 6.268-14 14-14z"/><path fill="#fff" d="M13.2 16.934h4.978c.344 0 .622.279.622.622 0 .344-.279.622-.622.622h-4.978c-.344 0-.622-.279-.622-.622 0-.344.278-.622.622-.622zM15.689 14.445c.344 0 .622.279.622.622v4.978c0 .344-.279.622-.622.622s-.622-.279-.622-.622v-4.978c0-.344.278-.622.622-.622zM18.927 13.2h-1.5v-2.489c0-.273-.222-.495-.494-.495h-2.489c-.272 0-.494.222-.494.495v2.489h-1.5v-2.489c0-1.1.895-1.995 1.994-1.995h2.489c1.1 0 1.994.895 1.994 1.995v2.489zM20.697 13.456c.395 0 .647.237.647.4v7.401c0 .163-.252.4-.647.4h-9.394c-.395 0-.647-.237-.647-.4v-7.401c0-.163.252-.4.647-.4h9.394zm0-1.5h-9.394c-1.186 0-2.147.851-2.147 1.9v7.401c0 1.049.961 1.9 2.147 1.9h9.394c1.186 0 2.147-.851 2.147-1.9v-7.401c0-1.05-.961-1.9-2.147-1.9z"/></svg><svg width="32" height="32" viewBox="0 0 32 32" y="714"><path fill="#b2b2b2" d="M16 30.25c-7.857 0-14.25-6.393-14.25-14.25s6.393-14.25 14.25-14.25 14.25 6.393 14.25 14.25-6.393 14.25-14.25 14.25zm0-28c-7.582 0-13.75 6.168-13.75 13.75s6.168 13.75 13.75 13.75 13.75-6.168 13.75-13.75-6.168-13.75-13.75-13.75z"/><path fill="#808080" d="M19.657 23.241c-1.475 0-4.327-1.789-6.55-4.783-2.326-3.133-3.318-5.115-3.318-6.629 0-.981.483-1.835 1.397-2.469l.099-.07c.612-.438 1.663-.529 1.91-.529.73 0 .93.479 1.025.71l.042.096c.12.237.937 2.199 1.015 2.405.252.667.086 1.292-.445 1.672-.412.287-.497.4-.51.455l.069.121c.699.944 2.77 3.505 3.111 3.823.071.066.15.106.212.106.289-.212.395-.326.403-.336l.076-.074c.085-.07.399-.301.895-.301.353 0 .555.164.702.284l.146.11c.647.438 2.273 1.613 2.273 1.613.241.203.815.691.329 1.622-.369.709-1.561 2.174-2.881 2.174zm-6.411-13.498c-.285.019-1.049.125-1.381.363l-.106.075c-.645.447-.97 1.001-.97 1.649 0 1.248.992 3.165 3.121 6.033 2.297 3.095 4.877 4.379 5.747 4.379.749 0 1.697-1.065 1.996-1.637.116-.223.11-.228-.038-.354h.001c.001 0-1.601-1.158-2.239-1.59l-.215-.162-.088-.067c-.145.007-.24.077-.244.08.006-.004-.073.1-.408.381-.44.371-1.127.323-1.602-.119-.436-.408-2.612-3.123-3.231-3.959-.215-.291-.3-.586-.251-.879.087-.53.582-.873.848-1.058.133-.094.289-.206.158-.552-.092-.244-.889-2.143-.974-2.311l-.072-.16-.052-.112z"/></svg><svg width="32" height="32" viewBox="0 0 32 32" y="756"><path fill="#7fd1cc" d="M29.579 12.344l-.05-.168c-.09-.128-.25-.216-.441-.216-.22 0-1.276.112-1.346.264l-.01.016-.02.12c-.451 2.064-.497 4.424-1.769 6.617-1.672 2.888-3.946 5.481-6.549 6.753-1.082.544-2.223.848-3.405.848-.371 0-.731-.032-1.092-.088-5.658-.896-9.4-8.561-10.611-14.137l-.01-.072c-.06-.168-1.135-.296-1.356-.296s-.411.112-.471.264l-.02.056-.01.008c-.269.807-.419 1.687-.419 2.631 0 1.424.431 3.072 1.182 4.753l.17.352c1.953 4.12 5.838 8.313 10.104 9.569.831.248 1.682.384 2.534.384 1.712 0 3.415-.544 5.007-1.448 5.037-2.841 9.003-9.282 9.003-13.61 0-.936-.14-1.8-.421-2.6zm-13.576 11.541c.754 0 1.48-.183 2.188-.508 1.894-.858 3.576-2.755 4.853-4.931.625-1.064 1.158-2.192 1.572-3.304v-.008c.653-1.763 1.02-3.478 1.02-4.82 0-.85-.147-1.66-.432-2.43-1.195-3.407-4.862-5.884-9.201-5.884-3.603 0-6.756 1.715-8.401 4.257-.331.506-.606 1.054-.809 1.634-.267.77-.414 1.58-.414 2.422.001 4.598 4.321 13.572 9.624 13.572zm-.013-16.634c1.937 0 3.498 1.565 3.498 3.498 0 1.942-1.561 3.507-3.498 3.507l-.376-.019c-1.619-.174-2.911-1.468-3.094-3.101l-.019-.386c.001-1.934 1.571-3.499 3.489-3.499z"/></svg><svg width="32" height="32" viewBox="0 0 32 32" y="798"><path fill="#f15044" d="M16.26 23.76c-.396 0-.775-.151-1.067-.426-2.127-1.99-5.807-5.568-6.536-7.162-1.019-2.228-.084-4.895 2.083-5.946.588-.286 1.215-.431 1.861-.431 1.478 0 2.865.778 3.662 2.042.822-1.279 2.197-2.042 3.66-2.042.646 0 1.271.145 1.859.43 2.168 1.051 3.103 3.719 2.084 5.947-.729 1.592-4.41 5.172-6.54 7.165-.295.273-.673.423-1.066.423zm-3.66-12.965c-.494 0-.974.111-1.425.33-1.682.816-2.404 2.893-1.61 4.63.472 1.032 2.832 3.593 6.311 6.849.076.071.203.155.384.155s.308-.083.384-.153c3.479-3.256 5.839-5.816 6.312-6.85.795-1.737.072-3.815-1.609-4.631-1.53-.74-3.456-.118-4.312 1.361l-.024.032.005.003c-.33.535-1.187.529-1.509-.004l-.054-.109c-.568-.964-1.674-1.613-2.853-1.613z"/><path fill="#b3b3b3" d="M16 2c7.732 0 14 6.268 14 14s-6.268 14-14 14-14-6.268-14-14 6.268-14 14-14zm0-.5c-7.995 0-14.5 6.505-14.5 14.5s6.505 14.5 14.5 14.5 14.5-6.505 14.5-14.5-6.505-14.5-14.5-14.5z"/></svg></svg>